<?xml version="1.0" standalone="no"?>
<svg xmlns:xlink="http://www.w3.org/1999/xlink" id="wave" style="transform:rotate(0deg); transition: 0.3s" viewBox="0 0 1440 300" version="1.1" xmlns="http://www.w3.org/2000/svg"><defs><linearGradient id="sw-gradient-0" x1="0" x2="0" y1="1" y2="0"><stop stop-color="rgba(238, 247, 247, 1)" offset="0%"/><stop stop-color="rgba(238, 247, 247, 1)" offset="100%"/></linearGradient></defs><path style="transform:translate(0, 0px); opacity:1" fill="url(#sw-gradient-0)" d="M0,90L80,75C160,60,320,30,480,45C640,60,800,120,960,140C1120,160,1280,140,1440,110C1600,80,1760,40,1920,40C2080,40,2240,80,2400,105C2560,130,2720,140,2880,135C3040,130,3200,110,3360,120C3520,130,3680,170,3840,170C4000,170,4160,130,4320,110C4480,90,4640,90,4800,120C4960,150,5120,210,5280,220C5440,230,5600,190,5760,180C5920,170,6080,190,6240,200C6400,210,6560,210,6720,220C6880,230,7040,250,7200,245C7360,240,7520,210,7680,180C7840,150,8000,120,8160,125C8320,130,8480,170,8640,195C8800,220,8960,230,9120,225C9280,220,9440,200,9600,170C9760,140,9920,100,10080,75C10240,50,10400,40,10560,40C10720,40,10880,50,11040,45C11200,40,11360,20,11440,10L11520,0L11520,300L11440,300C11360,300,11200,300,11040,300C10880,300,10720,300,10560,300C10400,300,10240,300,10080,300C9920,300,9760,300,9600,300C9440,300,9280,300,9120,300C8960,300,8800,300,8640,300C8480,300,8320,300,8160,300C8000,300,7840,300,7680,300C7520,300,7360,300,7200,300C7040,300,6880,300,6720,300C6560,300,6400,300,6240,300C6080,300,5920,300,5760,300C5600,300,5440,300,5280,300C5120,300,4960,300,4800,300C4640,300,4480,300,4320,300C4160,300,4000,300,3840,300C3680,300,3520,300,3360,300C3200,300,3040,300,2880,300C2720,300,2560,300,2400,300C2240,300,2080,300,1920,300C1760,300,1600,300,1440,300C1280,300,1120,300,960,300C800,300,640,300,480,300C320,300,160,300,80,300L0,300Z"/></svg>