<?xml version="1.0" standalone="no"?>
<svg xmlns:xlink="http://www.w3.org/1999/xlink" id="wave" style="transform:rotate(0deg); transition: 0.3s" viewBox="0 0 1440 280" version="1.1" xmlns="http://www.w3.org/2000/svg"><defs><linearGradient id="sw-gradient-0" x1="0" x2="0" y1="1" y2="0"><stop stop-color="rgba(254, 248, 237, 1)" offset="0%"/><stop stop-color="rgba(254, 248, 237, 1)" offset="100%"/></linearGradient></defs><path style="transform:translate(0, 0px); opacity:1" fill="url(#sw-gradient-0)" d="M0,0L48,14C96,28,192,56,288,79.3C384,103,480,121,576,135.3C672,149,768,159,864,144.7C960,131,1056,93,1152,93.3C1248,93,1344,131,1440,121.3C1536,112,1632,56,1728,42C1824,28,1920,56,2016,98C2112,140,2208,196,2304,196C2400,196,2496,140,2592,140C2688,140,2784,196,2880,210C2976,224,3072,196,3168,191.3C3264,187,3360,205,3456,186.7C3552,168,3648,112,3744,98C3840,84,3936,112,4032,135.3C4128,159,4224,177,4320,186.7C4416,196,4512,196,4608,172.7C4704,149,4800,103,4896,74.7C4992,47,5088,37,5184,70C5280,103,5376,177,5472,200.7C5568,224,5664,196,5760,182C5856,168,5952,168,6048,172.7C6144,177,6240,187,6336,177.3C6432,168,6528,140,6624,126C6720,112,6816,112,6864,112L6912,112L6912,280L6864,280C6816,280,6720,280,6624,280C6528,280,6432,280,6336,280C6240,280,6144,280,6048,280C5952,280,5856,280,5760,280C5664,280,5568,280,5472,280C5376,280,5280,280,5184,280C5088,280,4992,280,4896,280C4800,280,4704,280,4608,280C4512,280,4416,280,4320,280C4224,280,4128,280,4032,280C3936,280,3840,280,3744,280C3648,280,3552,280,3456,280C3360,280,3264,280,3168,280C3072,280,2976,280,2880,280C2784,280,2688,280,2592,280C2496,280,2400,280,2304,280C2208,280,2112,280,2016,280C1920,280,1824,280,1728,280C1632,280,1536,280,1440,280C1344,280,1248,280,1152,280C1056,280,960,280,864,280C768,280,672,280,576,280C480,280,384,280,288,280C192,280,96,280,48,280L0,280Z"/></svg>